<svg xmlns:ev="http://www.w3.org/2001/xml-events" xmlns:xlink="http://www.w3.org/1999/xlink" width="1132" xmlns="http://www.w3.org/2000/svg" height="804" viewBox="0 0 1132 804"><style type="text/css"><![CDATA[
.st2 {fill:#000000;font-family:Arial;font-size:10pt;font-weight:bold}
.st4 {fill:#000000;font-family:Arial;font-size:10pt}
.st5 {fill:#3498db;font-family:Arial;font-size:14pt}
.st3 {fill:#ffffff;font-family:Arial;font-size:11pt}
.st1 {fill:#ffffff;font-family:Arial;font-size:14pt}
]]></style><defs/><g id="page1" transform="translate(5,5)"><rect stroke="#808080" width="1123" height="794" y="0" fill="#f9f8f4" x="0"/><path/><g id="shape1" transform="translate(564.24,66)"><path stroke="#000000" d="M219.8,0L219.8,66L0,66L0,0L219.8,0z" stroke-width="0.666667" fill="#236ea1"/><text class="st1"><tspan y="32.4" x="116.4">Service       </tspan></text></g><path stroke="#69ae41" id="shape2" transform="translate(574.8,68.8)" d="M0,30.2C0,13.5,13.5,0,30.2,0C46.9,0,60.4,13.5,60.4,30.2C60.4,46.9,46.9,60.4,30.2,60.4C13.5,60.4,0,46.9,0,30.2z" stroke-width="0.666667" fill="#ff0000"/><g id="shape3" transform="translate(76,67.77)"><path stroke="#555555" d="M2.7,0L75.9,0C77.3,0,78.5,19,78.5,42.4L78.5,294.1C78.5,317.5,77.3,336.5,75.9,336.5L2.7,336.5C1.2,336.5,0,317.5,0,294.1L0,42.4C0,19,1.2,0,2.7,0z" stroke-width="4" fill="#f1f0eb"/><text class="st2"><tspan y="172.2" x="21.3">Client</tspan></text></g><g id="shape4" transform="translate(220.55,70.31)"><path stroke="#69ae41" d="M129.5,0L129.5,52.7L0,52.7L0,0L129.5,0z" stroke-width="0.666667" fill="#3498db"/><text class="st3"><tspan y="30.8" x="13.2">Identity Provider</tspan></text></g><g id="shape5" transform="translate(151,99)"><path stroke="#888889" stroke-linecap="round" d="M0,0L46.9,-1.6" stroke-width="2.66667" fill="none" stroke-dasharray="2.5,2.5"/><path stroke="#888889" stroke-linecap="round" d="M69.5,-2.3L58,-8.5L58.5,4.6L69.5,-2.3M58.2,-2L46.7,-8.1L47.2,4.9L58.2,-2" stroke-width="1" fill="#888889"/></g><g id="shape6" transform="translate(407.27,66)"><path stroke="#69ae41" d="M83.7,0L83.7,260L0,260L0,0L83.7,0z" stroke-width="0.666667" fill="#3498db"/><text class="st3"><tspan y="126" x="31.4">API </tspan><tspan y="143" x="13.4">Gateway</tspan></text></g><g id="shape7" transform="translate(350,96.66)"><path stroke="#888889" stroke-linecap="round" d="M0,0L33.4,1.4" stroke-width="2.66667" fill="none" stroke-dasharray="2.5,2.5"/><path stroke="#888889" stroke-linecap="round" d="M56,2.3L45,-4.7L44.4,8.4L56,2.3M44.7,1.9L33.7,-5.1L33.1,7.9L44.7,1.9" stroke-width="1" fill="#888889"/></g><g id="shape8" transform="translate(161,198)"><path stroke="#888889" stroke-linecap="round" d="M0,0L223.6,-1.8" stroke-width="2.66667" fill="none" stroke-dasharray="2.5,2.5"/><path stroke="#888889" stroke-linecap="round" d="M246.3,-2L234.9,-8.4L235,4.6L246.3,-2M235,-1.9L223.6,-8.3L223.7,4.7L235,-1.9" stroke-width="1" fill="#888889"/></g><g id="shape9" transform="translate(244.55,351.55)"><path stroke="#69ae41" d="M81.5,0L81.5,52.7L0,52.7L0,0L81.5,0z" stroke-width="0.666667" fill="#3498db"/><text class="st3"><tspan y="30.8" x="25.2">CDN</tspan></text></g><g id="shape10" transform="translate(244.55,377.89)"><path stroke="#888889" stroke-linecap="round" d="M0,0L-70.9,.1" stroke-width="2.66667" fill="none" stroke-dasharray="2.5,2.5"/><path stroke="#888889" stroke-linecap="round" d="M-93.5,.1L-82.2,6.6L-82.2,-6.4L-93.5,.1M-82.2,.1L-70.9,6.6L-70.9,-6.4L-82.2,.1" stroke-width="1" fill="#888889"/></g><g id="shape11" transform="translate(409.55,351.55)"><path stroke="#69ae41" d="M81.5,0L81.5,52.7L0,52.7L0,0L81.5,0z" stroke-width="0.666667" fill="#3498db"/><text class="st3"><tspan y="22.3" x="22.2">Static </tspan><tspan y="39.3" x="15.2">Content</tspan></text></g><g id="shape12" transform="translate(409.55,377.89)"><path stroke="#888889" stroke-linecap="round" d="M0,0L-60.9,-0" stroke-width="2.66667" fill="none" stroke-dasharray="2.5,2.5"/><path stroke="#888889" stroke-linecap="round" d="M-83.5,-0L-72.2,6.5L-72.2,-6.5L-83.5,-0M-72.2,-0L-60.9,6.5L-60.9,-6.5L-72.2,-0" stroke-width="1" fill="#888889"/></g><g id="shape13" transform="translate(564.24,163.75)"><path stroke="#555555" d="M219.8,0L219.8,66L0,66L0,0L219.8,0z" stroke-width="0.666667" fill="#236ea1"/><text class="st1"><tspan y="32.4" x="116.4">Service       </tspan></text></g><path stroke="#69ae41" id="shape14" transform="translate(574.8,166.55)" d="M0,30.2C0,13.5,13.5,0,30.2,0C46.9,0,60.4,13.5,60.4,30.2C60.4,46.9,46.9,60.4,30.2,60.4C13.5,60.4,0,46.9,0,30.2z" stroke-width="0.666667" fill="#ffff00"/><g id="shape15" transform="translate(564.24,260)"><path stroke="#555555" d="M219.8,0L219.8,66L0,66L0,0L219.8,0z" stroke-width="0.666667" fill="#236ea1"/><text class="st1"><tspan y="32.4" x="116.4">Service       </tspan></text></g><path stroke="#69ae41" id="shape16" transform="translate(574.8,262.8)" d="M0,30.2C0,13.5,13.5,0,30.2,0C46.9,0,60.4,13.5,60.4,30.2C60.4,46.9,46.9,60.4,30.2,60.4C13.5,60.4,0,46.9,0,30.2z" stroke-width="0.666667" fill="#69ae41"/><g id="shape17" transform="translate(862.55,170.41)"><path stroke="#69ae41" d="M81.5,0L81.5,52.7L0,52.7L0,0L81.5,0z" stroke-width="0.666667" fill="#3498db"/><text class="st3"><tspan y="22.3" x="15.2">Remote </tspan><tspan y="39.3" x="12.2">Services</tspan></text></g><g id="shape18" transform="translate(564.24,351.55)"><path stroke="#69ae41" d="M11.7,0L85.1,0C91.5,0,96.8,1.9,96.8,4.1L96.8,46.3C96.8,48.6,91.5,50.5,85.1,50.5L11.7,50.5C5.2,50.5,0,48.6,0,46.3L0,4.1C0,1.9,5.2,0,11.7,0z" stroke-width="4" fill="#f1f0eb"/><text class="st4"><tspan y="29.2" x="11.4">Management</tspan></text></g><g id="shape19" transform="translate(687.24,351.55)"><path stroke="#69ae41" d="M11.7,0L85.1,0C91.5,0,96.8,1.9,96.8,4.1L96.8,46.3C96.8,48.6,91.5,50.5,85.1,50.5L11.7,50.5C5.2,50.5,0,48.6,0,46.3L0,4.1C0,1.9,5.2,0,11.7,0z" stroke-width="4" fill="#f1f0eb"/><text class="st4"><tspan y="21.2" x="27.4">Service </tspan><tspan y="37.2" x="20.4">Discovery</tspan></text></g><g id="shape20" transform="translate(609.88,351.44)"><path stroke="#888889" stroke-linecap="round" d="M0,0L43.2,-17.1" stroke-width="2.66667" fill="none" stroke-dasharray="2.5,2.5"/><path stroke="#888889" stroke-linecap="round" d="M64.2,-25.4L51.3,-27.3L56.1,-15.2L64.2,-25.4M53.7,-21.3L40.8,-23.2L45.6,-11L53.7,-21.3" stroke-width="1" fill="#888889"/></g><g id="shape21" transform="translate(674.12,326)"><path stroke="#888889" stroke-linecap="round" d="M0,0L38,16.4" stroke-width="2.66667" fill="none" stroke-dasharray="2.5,2.5"/><path stroke="#888889" stroke-linecap="round" d="M58.8,25.4L51,14.9L45.8,26.9L58.8,25.4M48.4,20.9L40.6,10.5L35.4,22.4L48.4,20.9" stroke-width="1" fill="#888889"/></g><g id="shape22" transform="translate(661,376.77)"><path stroke="#888889" stroke-linecap="round" d="M0,0L3.6,-0" stroke-width="2.66667" fill="none" stroke-dasharray="2.5,2.5"/><path stroke="#888889" stroke-linecap="round" d="M26.2,-0L14.9,-6.5L14.9,6.5L26.2,-0M14.9,-0L3.6,-6.5L3.6,6.5L14.9,-0" stroke-width="1" fill="#888889"/></g><g id="shape23" transform="translate(784,196.75)"><path stroke="#888889" stroke-linecap="round" d="M0,0L55.9,0" stroke-width="2.66667" fill="none" stroke-dasharray="2.5,2.5"/><path stroke="#888889" stroke-linecap="round" d="M78.5,0L67.2,-6.5L67.2,6.5L78.5,0M67.2,0L55.9,-6.5L55.9,6.5L67.2,0" stroke-width="1" fill="#888889"/></g><g id="shape24" transform="translate(491,189)"><path stroke="#888889" stroke-linecap="round" d="M0,0L58.2,85.3" stroke-width="2.66667" fill="none" stroke-dasharray="2.5,2.5"/><path stroke="#888889" stroke-linecap="round" d="M71,104L70,91L59.2,98.3L71,104M64.6,94.7L63.6,81.6L52.8,89L64.6,94.7" stroke-width="1" fill="#888889"/></g><g id="shape25" transform="translate(491,189)"><path stroke="#888889" stroke-linecap="round" d="M0,0L53.4,0" stroke-width="2.66667" fill="none" stroke-dasharray="2.5,2.5"/><path stroke="#888889" stroke-linecap="round" d="M76,0L64.7,-6.5L64.7,6.5L76,0M64.7,0L53.4,-6.5L53.4,6.5L64.7,0" stroke-width="1" fill="#888889"/></g><g id="shape26" transform="translate(491,189)"><path stroke="#888889" stroke-linecap="round" d="M0,0L57.5,-76.9" stroke-width="2.66667" fill="none" stroke-dasharray="2.5,2.5"/><path stroke="#888889" stroke-linecap="round" d="M71,-95L59,-89.8L69.5,-82L71,-95M64.2,-85.9L52.2,-80.8L62.7,-73L64.2,-85.9" stroke-width="1" fill="#888889"/></g><path stroke="#3498db" id="shape27" transform="translate(524,24.9)" d="M293,0L293,315.1L0,315.1L0,0L293,0z" stroke-width="0.666667" fill="none" stroke-dasharray="6,4"/><g id="shape28" transform="translate(476.5,24.9)"><text class="st5"><tspan y="23.8" x="132">Micro Services</tspan></text></g></g></svg>